<svg width="30" height="30" viewBox="0 0 30 30" fill="none" xmlns="http://www.w3.org/2000/svg">
<path d="M15 30C23.2843 30 30 23.2843 30 15C30 6.71573 23.2843 0 15 0C6.71573 0 0 6.71573 0 15C0 23.2843 6.71573 30 15 30Z" fill="#B5D1E3"/>
<path d="M9.82858 6.49716C7.93908 6.49716 6.1656 7.02755 4.67389 7.95573V22.6242C6.18218 21.6961 7.93908 21.1657 9.82858 21.1657C11.7181 21.1657 13.4916 21.6961 14.9833 22.6242V7.95573C13.4916 7.02755 11.7181 6.49716 9.82858 6.49716Z" fill="white"/>
<path d="M20.1547 6.49716C18.2652 6.49716 16.4917 7.02755 15 7.95573V9.82865C16.5083 8.90048 18.2652 8.37009 20.1547 8.37009C21.2983 8.37009 22.4088 8.56898 23.4365 8.93363V19.8563C22.4088 19.4916 21.2983 19.2927 20.1547 19.2927C18.2652 19.2927 16.4917 19.8231 15 20.7513V22.6077C16.5083 21.6795 18.2652 21.1657 20.1547 21.1657C22.0442 21.1657 23.8177 21.6961 25.3094 22.6242V7.95573C23.8011 7.02755 22.0442 6.49716 20.1547 6.49716Z" fill="white"/>
<path d="M20.1548 11.0054C18.6465 11.0054 17.2211 11.3534 15.9283 11.9501V13.8231C17.2045 13.2098 18.6299 12.8783 20.1548 12.8783C20.967 12.8783 21.746 12.9777 22.4918 13.1601V11.2871C21.746 11.1048 20.967 11.0054 20.1548 11.0054Z" fill="white"/>
<path d="M22.4918 15.0333C21.746 14.851 20.9504 14.7516 20.1548 14.7516C18.6465 14.7516 17.2211 15.0996 15.9283 15.6963V17.5692C17.2045 16.956 18.6299 16.6245 20.1548 16.6245C20.967 16.6245 21.746 16.7239 22.4918 16.9063V15.0333Z" fill="white"/>
</svg>
