<svg width="14" height="10" viewBox="0 0 14 10" fill="none" xmlns="http://www.w3.org/2000/svg">
<g opacity="0.6">
<rect width="14" height="10" rx="1" fill="white"/>
<mask id="mask0" mask-type="alpha" maskUnits="userSpaceOnUse" x="0" y="0" width="14" height="10">
<rect width="14" height="10" rx="1" fill="white"/>
</mask>
<g mask="url(#mask0)">
<rect width="14" height="10" fill="#0A17A7"/>
<path fill-rule="evenodd" clip-rule="evenodd" d="M-0.640625 -0.958496L5.33333 3.07099V-0.666992H8.66667V3.07161L14.6413 -0.958361L15.3869 0.147022L10.6635 3.33301H14V6.66634H10.6637L15.3874 9.85257L14.6418 10.958L8.66667 6.92764V10.6663H5.33333V6.92826L-0.641128 10.9581L-1.38672 9.8527L3.33726 6.66634H0V3.33301H3.3374L-1.38622 0.146887L-0.640625 -0.958496Z" fill="white"/>
<path d="M9.33333 3.1661L15.666 -1" stroke="#DB1F35" stroke-width="0.666667" stroke-linecap="round"/>
<path d="M10.0065 6.84871L15.6834 10.6751" stroke="#DB1F35" stroke-width="0.666667" stroke-linecap="round"/>
<path d="M4.00224 3.15527L-1.91927 -0.835449" stroke="#DB1F35" stroke-width="0.666667" stroke-linecap="round"/>
<path d="M4.6445 6.80232L-1.91927 11.1551" stroke="#DB1F35" stroke-width="0.666667" stroke-linecap="round"/>
<path fill-rule="evenodd" clip-rule="evenodd" d="M0 6H6V10H8V6H14V4H8V0H6V4H0V6Z" fill="#E6273E"/>
</g>
</g>
</svg>
