<svg width="14" height="10" viewBox="0 0 14 10" fill="none" xmlns="http://www.w3.org/2000/svg">
<g opacity="0.6">
<rect width="14" height="10" rx="2" fill="white"/>
<mask id="mask0" mask-type="alpha" maskUnits="userSpaceOnUse" x="0" y="0" width="14" height="10">
<rect width="14" height="10" rx="1" fill="white"/>
</mask>
<g mask="url(#mask0)">
<rect width="14" height="10" fill="#E81B26"/>
<path fill-rule="evenodd" clip-rule="evenodd" d="M7.00083 6.667C7.92131 6.667 8.6675 5.92081 8.6675 5.00033C8.6675 4.07986 7.92131 3.33366 7.00083 3.33366C6.08036 3.33366 5.33417 4.07986 5.33417 5.00033C5.33417 5.92081 6.08036 6.667 7.00083 6.667Z" fill="#FFE94F"/>
<path fill-rule="evenodd" clip-rule="evenodd" d="M8.89501 6.35973L14.357 10.2787L13.0187 11.765L8.55019 6.74258C8.67866 6.62816 8.7944 6.49974 8.89501 6.35973ZM9.30904 5.32978L14 5.99992V3.99992L9.30913 4.67005C9.32435 4.77771 9.33222 4.88773 9.33222 4.99959C9.33222 5.11167 9.32432 5.22191 9.30904 5.32978ZM8.89517 3.63968L14.3571 -0.279335L13.0189 -1.76562L8.5504 3.25679C8.67885 3.37123 8.79458 3.49965 8.89517 3.63968ZM7.45734 2.71128L7.99962 -8.23736e-05H5.99962L6.54183 2.711C6.68963 2.68165 6.84246 2.66626 6.99889 2.66626C7.1558 2.66626 7.30911 2.68175 7.45734 2.71128ZM5.44819 3.25606L0.980351 -1.76562L-0.35791 -0.279335L5.10309 3.63899C5.20379 3.49893 5.31962 3.37049 5.44819 3.25606ZM4.68869 4.66973L2.44081e-05 3.99992V5.99992L4.68878 5.3301C4.67347 5.22213 4.66555 5.11179 4.66555 4.99959C4.66555 4.88762 4.67344 4.77749 4.68869 4.66973ZM5.10326 6.36042L-0.357723 10.2787L0.980538 11.765L5.4484 6.74331C5.31981 6.62889 5.20397 6.50046 5.10326 6.36042ZM6.54196 7.28821L5.99962 9.99992H7.99962L7.45722 7.28793C7.30902 7.31744 7.15576 7.33293 6.99889 7.33293C6.84251 7.33293 6.68972 7.31754 6.54196 7.28821Z" fill="#FFE94F"/>
</g>
</g>
</svg>
