<svg width="30" height="30" viewBox="0 0 30 30" fill="none" xmlns="http://www.w3.org/2000/svg">
<path d="M15 30C23.2843 30 30 23.2843 30 15C30 6.71573 23.2843 0 15 0C6.71573 0 0 6.71573 0 15C0 23.2843 6.71573 30 15 30Z" fill="#E6C3A4"/>
<path d="M15.0172 17.8177C16.5734 17.8177 17.8349 16.5562 17.8349 15C17.8349 13.4438 16.5734 12.1823 15.0172 12.1823C13.461 12.1823 12.1995 13.4438 12.1995 15C12.1995 16.5562 13.461 17.8177 15.0172 17.8177Z" fill="white"/>
<path d="M10.4758 8.43671H7.50891C6.48129 8.43671 5.63599 9.28201 5.63599 10.3096V19.6909C5.63599 20.7185 6.48129 21.5638 7.50891 21.5638H22.5089C23.5365 21.5638 24.3818 20.7185 24.3818 19.6909V10.3096C24.3818 9.28201 23.5365 8.43671 22.5089 8.43671H19.5421H10.4758ZM15.0006 19.6909C12.415 19.6909 10.31 17.5859 10.31 15.0002C10.31 12.4146 12.415 10.3096 15.0006 10.3096C17.5863 10.3096 19.6912 12.4146 19.6912 15.0002C19.6912 17.5859 17.6028 19.6909 15.0006 19.6909Z" fill="white"/>
<path d="M18.763 6.54706H11.2547V8.41999H18.763V6.54706Z" fill="white"/>
</svg>
