<svg width="30" height="30" viewBox="0 0 30 30" fill="none" xmlns="http://www.w3.org/2000/svg">
<path d="M15 30C23.2843 30 30 23.2843 30 15C30 6.71573 23.2843 0 15 0C6.71573 0 0 6.71573 0 15C0 23.2843 6.71573 30 15 30Z" fill="#D1D1D1"/>
<path d="M23.5191 18.9116C21.4473 16.5249 18.3976 15 14.9998 15C11.5854 15 8.53572 16.5083 6.48047 18.9116C7.95561 22.1436 11.2208 24.3812 14.9998 24.3812C18.7788 24.3812 22.0274 22.1436 23.5191 18.9116Z" fill="white"/>
<path d="M14.9837 14.0551C17.0525 14.0551 18.7296 12.378 18.7296 10.3092C18.7296 8.24045 17.0525 6.56338 14.9837 6.56338C12.9149 6.56338 11.2379 8.24045 11.2379 10.3092C11.2379 12.378 12.9149 14.0551 14.9837 14.0551Z" fill="white"/>
</svg>
